<svg xmlns="http://www.w3.org/2000/svg" version="1.1" xmlns:xlink="http://www.w3.org/1999/xlink" xmlns:svgjs="http://svgjs.dev/svgjs" width="1000" height="239" viewBox="0 0 1000 239"><g transform="matrix(1,0,0,1,-0.6060606060606233,-0.46295752479620944)"><svg xmlns="http://www.w3.org/2000/svg" version="1.1" xmlns:xlink="http://www.w3.org/1999/xlink" xmlns:svgjs="http://svgjs.com/svgjs" viewBox="0 0 396 95" data-background-color="#ffffff" preserveAspectRatio="xMidYMid meet" height="239" width="1000"><defs></defs><g id="tight-bounds" transform="matrix(1,0,0,1,0.2400000000000091,0.1840207734545629)"><svg viewBox="0 0 395.52 94.63195845309085" height="94.63195845309085" width="395.52"><g><svg viewBox="0 0 533.5865105436013 127.66569704918032" height="94.63195845309085" width="395.52"><g transform="matrix(1,0,0,1,138.0665105436013,39.45055344262295)"><svg viewBox="0 0 395.52 48.76459016393442" height="48.76459016393442" width="395.52"><g><svg viewBox="0 0 395.52 48.76459016393442" height="48.76459016393442" width="395.52"><g><svg viewBox="0 0 395.52 48.76459016393442" height="48.76459016393442" width="395.52"><g transform="matrix(1,0,0,1,0,0)"><svg width="395.52" viewBox="1.05 -35.5 292.77 36.1" height="48.76459016393442" data-palette-color="#ffffff"><path d="M27.9 0L23.8 0 20.7-10.45 8.15-10.45 5.05 0 1.05 0 11.95-34.9 16.95-34.9 27.9 0ZM19.8-13.75L15.75-27 14.65-31.35 14.15-31.35 13.05-27 9.1-13.75 19.8-13.75ZM55.75 0L50.75 0 40.5-34.9 44.7-34.9 51.3-12.35 53.05-3.5 53.55-3.5 55.3-12.35 61.95-34.9 66.05-34.9 55.75 0ZM82.44 0L69.64 0 69.64-3.3 74.04-3.3 74.04-31.6 69.64-31.6 69.64-34.9 82.44-34.9 82.44-31.6 78.04-31.6 78.04-3.3 82.44-3.3 82.44 0ZM89.24 0L89.24-34.9 100.19-34.9Q106.24-34.9 109.54-30.73 112.84-26.55 112.84-17.45L112.84-17.45Q112.84-8.35 109.54-4.17 106.24 0 100.19 0L100.19 0 89.24 0ZM93.24-3.5L100.19-3.5Q103.94-3.5 106.24-6.1 108.54-8.7 108.54-13.55L108.54-13.55 108.54-21.35Q108.54-26.2 106.24-28.8 103.94-31.4 100.19-31.4L100.19-31.4 93.24-31.4 93.24-3.5ZM141.94 0L137.84 0 134.74-10.45 122.19-10.45 119.09 0 115.09 0 125.99-34.9 130.99-34.9 141.94 0ZM133.84-13.75L129.79-27 128.69-31.35 128.19-31.35 127.09-27 123.14-13.75 133.84-13.75ZM168.88-4.55L165.28-4.55 165.28-13.65 156.58-13.65 156.58-16.85 165.28-16.85 165.28-25.95 168.88-25.95 168.88-16.85 177.58-16.85 177.58-13.65 168.88-13.65 168.88-4.55ZM199.33-15L199.33 0 195.33 0 195.33-34.9 208.18-34.9Q216.83-34.9 216.83-24.95L216.83-24.95Q216.83-16.55 210.63-15.25L210.63-15.25 217.68 0 213.18 0 206.63-15 199.33-15ZM199.33-18.4L208.08-18.4Q212.53-18.4 212.53-23.2L212.53-23.2 212.53-26.6Q212.53-31.4 208.08-31.4L208.08-31.4 199.33-31.4 199.33-18.4ZM235.53 0L222.73 0 222.73-3.3 227.13-3.3 227.13-31.6 222.73-31.6 222.73-34.9 235.53-34.9 235.53-31.6 231.13-31.6 231.13-3.3 235.53-3.3 235.53 0ZM253.42 0.6L253.42 0.6Q250.47 0.6 248.12-0.48 245.77-1.55 244.15-3.75 242.52-5.95 241.65-9.38 240.77-12.8 240.77-17.45L240.77-17.45Q240.77-22.1 241.65-25.53 242.52-28.95 244.15-31.15 245.77-33.35 248.12-34.43 250.47-35.5 253.42-35.5L253.42-35.5Q257.72-35.5 260.32-33.68 262.92-31.85 264.42-28.1L264.42-28.1 261.22-26.15Q260.27-29 258.5-30.48 256.72-31.95 253.42-31.95L253.42-31.95Q249.42-31.95 247.25-29.08 245.07-26.2 245.07-21.35L245.07-21.35 245.07-13.55Q245.07-8.7 247.25-5.83 249.42-2.95 253.42-2.95L253.42-2.95Q256.82-2.95 258.67-4.53 260.52-6.1 261.47-9.1L261.47-9.1 264.67-7.1Q263.17-3.35 260.45-1.38 257.72 0.6 253.42 0.6ZM293.82 0L289.72 0 286.62-10.45 274.07-10.45 270.97 0 266.97 0 277.87-34.9 282.87-34.9 293.82 0ZM285.72-13.75L281.67-27 280.57-31.35 280.07-31.35 278.97-27 275.02-13.75 285.72-13.75Z" opacity="1" transform="matrix(1,0,0,1,0,0)" fill="#ffffff" class="undefined-text-0" data-fill-palette-color="primary" id="text-0"></path></svg></g></svg></g></svg></g></svg></g><g><svg viewBox="0 0 126.55436115606034 127.66569704918032" height="127.66569704918032" width="126.55436115606034"><g><svg xmlns="http://www.w3.org/2000/svg" xmlns:xlink="http://www.w3.org/1999/xlink" version="1.1" x="0" y="0" viewBox="0.2086718071334361 0 47.582157743992816 48" enable-background="new 0 0 48 48" xml:space="preserve" height="127.66569704918032" width="126.55436115606034" class="icon-icon-0" fill="#f1d831" data-fill-palette-color="accent" id="icon-0"><g fill="#f1d831" data-fill-palette-color="accent"><path d="M46.912 26.624c-0.529-0.08-1.035 0.282-1.119 0.817-1.688 10.777-10.846 18.6-21.774 18.6-11.051 0-20.448-8.252-21.858-19.194C2.091 26.311 1.593 25.938 1.063 26c-0.537 0.07-0.916 0.561-0.846 1.098C1.753 39.015 11.986 48 24.019 48c11.9 0 21.872-8.519 23.71-20.257C47.813 27.21 47.447 26.708 46.912 26.624z" fill="#f1d831" data-fill-palette-color="accent"></path><path d="M1.064 21.985c0.042 0.005 0.085 0.008 0.127 0.008 0.484 0 0.906-0.359 0.97-0.854C3.579 10.204 12.975 1.959 24.019 1.959c10.914 0 20.296 8.136 21.823 18.923 0.076 0.536 0.578 0.912 1.107 0.833 0.535-0.076 0.908-0.572 0.832-1.108C46.117 8.859 35.902 0 24.019 0 11.994 0 1.762 8.979 0.219 20.887 0.149 21.424 0.527 21.915 1.064 21.985z" fill="#f1d831" data-fill-palette-color="accent"></path><path d="M24.019 14.224c-5.391 0-9.776 4.386-9.776 9.776s4.386 9.776 9.776 9.776c5.392 0 9.776-4.386 9.776-9.776S29.41 14.224 24.019 14.224zM24.514 29.231v1.775h-1.075v-1.725c-0.989-0.017-2.013-0.323-2.612-0.752l0.41-1.143c0.615 0.41 1.502 0.733 2.458 0.733 1.212 0 2.032-0.699 2.032-1.671 0-0.939-0.666-1.521-1.93-2.032-1.74-0.684-2.815-1.469-2.815-2.953 0-1.417 1.006-2.493 2.577-2.748v-1.726h1.058v1.656c1.024 0.035 1.724 0.309 2.22 0.598l-0.428 1.127c-0.357-0.204-1.057-0.58-2.15-0.58-1.313 0-1.809 0.786-1.809 1.468 0 0.888 0.631 1.331 2.117 1.946 1.757 0.718 2.645 1.604 2.645 3.123C27.211 27.679 26.272 28.941 24.514 29.231z" fill="#f1d831" data-fill-palette-color="accent"></path><path d="M24.019 7.435C14.885 7.435 7.454 14.866 7.454 24s7.431 16.565 16.565 16.565S40.583 33.134 40.583 24 33.152 7.435 24.019 7.435zM24.019 35.736c-6.472 0-11.735-5.265-11.735-11.736s5.264-11.736 11.735-11.736S35.755 17.528 35.755 24 30.49 35.736 24.019 35.736z" fill="#f1d831" data-fill-palette-color="accent"></path></g></svg><g></g></g></svg></g></svg></g></svg><rect width="395.52" height="94.63195845309085" fill="transparent" stroke="transparent"></rect></g></svg></g></svg>