<svg xmlns="http://www.w3.org/2000/svg" version="1.1" xmlns:xlink="http://www.w3.org/1999/xlink" xmlns:svgjs="http://svgjs.dev/svgjs" width="1000" height="740" viewBox="0 0 1000 740"><g transform="matrix(1,0,0,1,0.6357791916959172,0)"><svg xmlns="http://www.w3.org/2000/svg" version="1.1" xmlns:xlink="http://www.w3.org/1999/xlink" xmlns:svgjs="http://svgjs.com/svgjs" viewBox="0 0 270 200" data-background-color="#ffffff" preserveAspectRatio="xMidYMid meet" height="740" width="1000"><defs></defs><g id="tight-bounds" transform="matrix(1,0,0,1,-0.17166038175790277,0)"><svg viewBox="0 0 270.3433207635158 200" height="200" width="270.3433207635158"><g><svg viewBox="0 0 271.6950373673334 201" height="200" width="270.3433207635158"><g><rect width="4.1682686021108575" height="201" x="104.75884530223632" y="0" fill="#ffffff" opacity="1" stroke-width="0" stroke="transparent" fill-opacity="1" class="rect-borderrectangle-0" data-fill-palette-color="primary" rx="1%" id="borderrectangle-0" data-palette-color="#ffffff"></rect></g><g transform="matrix(1,0,0,1,119.83881181563214,0.4999999999999858)"><svg viewBox="0 0 151.85622555170124 200.00000000000003" height="200.00000000000003" width="151.85622555170124"><g><svg viewBox="0 0 151.85622555170124 200.00000000000003" height="200.00000000000003" width="151.85622555170124"><g><svg viewBox="0 0 151.85622555170124 200.00000000000003" height="200.00000000000003" width="151.85622555170124"><g transform="matrix(1,0,0,1,0,0)"><svg width="151.85622555170124" viewBox="0 -35.84 123.75 155.41" height="200.00000000000003" data-palette-color="#ffffff"><svg xmlns="http://www.w3.org/2000/svg" version="1.1" xmlns:xlink="http://www.w3.org/1999/xlink" xmlns:svgjs="http://svgjs.com/svgjs"></svg><svg xmlns="http://www.w3.org/2000/svg" version="1.1" xmlns:xlink="http://www.w3.org/1999/xlink" xmlns:svgjs="http://svgjs.com/svgjs"></svg><svg xmlns="http://www.w3.org/2000/svg" version="1.1" xmlns:xlink="http://www.w3.org/1999/xlink" xmlns:svgjs="http://svgjs.com/svgjs"></svg><svg xmlns="http://www.w3.org/2000/svg" version="1.1" xmlns:xlink="http://www.w3.org/1999/xlink" xmlns:svgjs="http://svgjs.com/svgjs"></svg><g class="undefined-text-0" data-fill-palette-color="primary" id="text-0"><path d="M34.5 0h-8.16l-2.59-8.5h-13.01l-2.59 8.5h-8.15l12.6-35.84h9.25zM12.65-14.84h9.3c-2.393-7.7-3.74-12.057-4.04-13.07-0.3-1.007-0.517-1.803-0.65-2.39v0c-0.533 2.087-2.07 7.24-4.61 15.46z" data-fill-palette-color="primary" fill="#ffffff" opacity="1"></path><path d="M18.09 25.24l6.76-21.24h7.65l-12.14 35.69h-8.25l-12.11-35.69h7.64l6.72 21.24c0.373 1.253 0.76 2.713 1.16 4.38 0.393 1.667 0.64 2.827 0.74 3.48v0c0.18-1.5 0.79-4.12 1.83-7.86zM44.56 39.69h-7.57v-35.69h7.57zM83.15 21.5v0c0 5.873-1.67 10.373-5.01 13.5-3.347 3.127-8.177 4.69-14.49 4.69v0h-10.11v-35.69h11.21c5.827 0 10.35 1.537 13.57 4.61 3.22 3.08 4.83 7.377 4.83 12.89zM75.29 21.7v0c0-7.667-3.383-11.5-10.15-11.5v0h-4.03v23.24h3.25c7.287 0 10.93-3.913 10.93-11.74zM120.56 39.69h-8.16l-2.59-8.5h-13.01l-2.59 8.5h-8.15l12.6-35.84h9.25zM98.71 24.85h9.3c-2.393-7.7-3.74-12.057-4.04-13.07-0.3-1.007-0.517-1.803-0.65-2.39v0c-0.54 2.087-2.077 7.24-4.61 15.46z" data-fill-palette-color="primary" fill="#ffffff" opacity="1"></path><path d="M26.54 79.39h-6.94l-8.59-28h-0.22c0.307 5.693 0.46 9.493 0.46 11.4v0 16.6h-6.76v-35.69h10.3l8.45 27.29h0.15l8.96-27.29h10.3v35.69h-7.05v-16.89c0-0.8 0.01-1.72 0.03-2.76 0.027-1.047 0.137-3.813 0.33-8.3v0h-0.22zM81.64 79.39h-8.15l-2.59-8.5h-13.01l-2.59 8.5h-8.16l12.6-35.84h9.25zM59.79 64.55h9.3c-2.393-7.7-3.74-12.057-4.04-13.07-0.3-1.007-0.517-1.803-0.65-2.39v0c-0.533 2.087-2.07 7.24-4.61 15.46zM93.7 79.39h-7.57v-35.69h7.57zM123.75 69.48v0c0 3.22-1.157 5.76-3.47 7.62-2.32 1.853-5.547 2.78-9.68 2.78v0c-3.813 0-7.183-0.717-10.11-2.15v0-7.03c2.407 1.073 4.443 1.83 6.11 2.27 1.673 0.44 3.2 0.66 4.58 0.66v0c1.66 0 2.933-0.317 3.82-0.95 0.887-0.64 1.33-1.587 1.33-2.84v0c0-0.7-0.193-1.32-0.58-1.86-0.393-0.547-0.967-1.073-1.72-1.58-0.76-0.507-2.303-1.313-4.63-2.42v0c-2.18-1.02-3.817-2.003-4.91-2.95-1.087-0.947-1.957-2.047-2.61-3.3-0.653-1.253-0.98-2.717-0.98-4.39v0c0-3.16 1.07-5.643 3.21-7.45 2.14-1.807 5.1-2.71 8.88-2.71v0c1.853 0 3.623 0.22 5.31 0.66 1.687 0.44 3.447 1.06 5.28 1.86v0l-2.44 5.88c-1.9-0.78-3.473-1.323-4.72-1.63-1.247-0.313-2.473-0.47-3.68-0.47v0c-1.427 0-2.523 0.333-3.29 1-0.767 0.667-1.15 1.54-1.15 2.62v0c0 0.667 0.153 1.247 0.46 1.74 0.313 0.5 0.807 0.98 1.48 1.44 0.673 0.467 2.273 1.3 4.8 2.5v0c3.333 1.6 5.62 3.2 6.86 4.8 1.233 1.607 1.85 3.573 1.85 5.9z" data-fill-palette-color="primary" fill="#ffffff" opacity="1"></path><path d="M12.06 89.59v9.64h2.44c2.393 0 4.16-0.397 5.3-1.19 1.14-0.8 1.71-2.053 1.71-3.76v0c0-1.693-0.583-2.9-1.75-3.62-1.16-0.713-2.96-1.07-5.4-1.07v0zM16.09 105.38h-4.03v13.7h-7.57v-35.69h10.4c4.853 0 8.443 0.883 10.77 2.65 2.327 1.76 3.49 4.44 3.49 8.04v0c0 2.1-0.577 3.967-1.73 5.6-1.16 1.64-2.797 2.923-4.91 3.85v0c5.373 8.02 8.873 13.203 10.5 15.55v0h-8.4zM45.07 119.08h-7.57v-35.69h7.57zM69.21 89.17v0c-2.847 0-5.05 1.07-6.61 3.21-1.567 2.14-2.35 5.123-2.35 8.95v0c0 7.96 2.987 11.94 8.96 11.94v0c2.507 0 5.543-0.627 9.11-1.88v0 6.35c-2.927 1.22-6.197 1.83-9.81 1.83v0c-5.193 0-9.167-1.577-11.92-4.73-2.747-3.147-4.12-7.667-4.12-13.56v0c0-3.707 0.673-6.957 2.02-9.75 1.353-2.793 3.293-4.933 5.82-6.42 2.533-1.493 5.5-2.24 8.9-2.24v0c3.467 0 6.95 0.84 10.45 2.52v0l-2.44 6.15c-1.333-0.633-2.677-1.187-4.03-1.66-1.347-0.473-2.673-0.71-3.98-0.71zM115.92 119.08h-8.16l-2.58-8.5h-13.02l-2.58 8.5h-8.16l12.6-35.84h9.25zM94.07 104.24h9.3c-2.393-7.7-3.74-12.057-4.04-13.07-0.3-1.007-0.517-1.803-0.65-2.39v0c-0.533 2.087-2.07 7.24-4.61 15.46z" data-fill-palette-color="primary" fill="#ffffff" opacity="1"></path></g></svg></g></svg></g></svg></g></svg></g><g transform="matrix(1,0,0,1,0,31.392763248232228)"><svg viewBox="0 0 93.84714739095136 138.21447350353554" height="138.21447350353554" width="93.84714739095136"><g><svg xmlns="http://www.w3.org/2000/svg" xmlns:xlink="http://www.w3.org/1999/xlink" version="1.1" x="0" y="0" viewBox="16.224 0 67.827 99.893" enable-background="new 0 0 100 100" xml:space="preserve" height="138.21447350353554" width="93.84714739095136" class="icon-icon-0" fill="#efda47" data-fill-palette-color="accent" id="icon-0"><g fill="#efda47" data-fill-palette-color="accent"><path d="M55.076 41.137c-0.353-0.075-0.622-0.151-0.959-0.226V28.788c5.604 0.904 11.528 3.359 17.053 7.246l10.771-15.209c-7.531-6.043-16.577-9.502-27.824-10.184V0h-5.421v10.545c-17.882 0.476-28.812 10.728-28.812 24.818v0.226c0 15.819 12.516 20.545 28.812 24.305v12.77c-7.262-0.928-14.178-3.966-20.483-8.986L16.224 77.993c8.629 7.726 20.17 11.969 32.472 12.715v9.185h5.421v-9.074c18.032-0.483 29.934-9.811 29.934-25.254v-0.229C84.051 50.798 72.95 45.024 55.076 41.137zM41.645 33.594v-0.23c0-2.633 2.34-4.751 7.051-4.949v11.088C43.215 37.838 41.645 36.295 41.645 33.594zM62.294 67.666c0 3.189-2.875 5.132-8.177 5.299V61.289c6.389 1.856 8.177 3.53 8.177 6.155V67.666z" fill="#efda47" data-fill-palette-color="accent"></path></g></svg></g></svg></g></svg></g></svg><rect width="270.3433207635158" height="200" fill="transparent" stroke="transparent"></rect></g></svg></g></svg>